<?xml version="1.0" standalone="no"?><!DOCTYPE svg PUBLIC "-//W3C//DTD SVG 1.1//EN" "http://www.w3.org/Graphics/SVG/1.1/DTD/svg11.dtd"><svg t="1745716180468" class="icon" viewBox="0 0 1024 1024" version="1.1" xmlns="http://www.w3.org/2000/svg" p-id="5463" width="256" height="256" xmlns:xlink="http://www.w3.org/1999/xlink"><path d="M512.8 408h-2.4c-32.8 0-56.8 5.6-72 11.2-9.6 4-16 12.8-16 23.2v64H512c10.4 0 19.2 7.2 20 17.6 0.8 10.4-8 20-18.4 20h-192c-10.4 0-19.2 6.4-23.2 16-5.6 14.4-11.2 38.4-11.2 72v2.4c0 32.8 5.6 56.8 11.2 72 4 9.6 12.8 16 23.2 16h64v-14.4c0-51.2 41.6-93.6 93.6-93.6h65.6c31.2 0 56-24.8 56-56V442.4c0-10.4-6.4-19.2-16-23.2-14.4-5.6-38.4-11.2-72-11.2zM472 489.6c-15.2 0-28-12.8-28-28s12.8-28 28-28 28 12.8 28 28-12 28-28 28z" fill="#EA5514" p-id="5464"></path><path d="M701.6 543.2h-64v14.4c0 51.2-41.6 93.6-93.6 93.6h-65.6c-31.2 0-56 24.8-56 56v115.2c0 10.4 6.4 19.2 16 23.2 14.4 5.6 38.4 11.2 72 11.2h2.4c32.8 0 56.8-5.6 72-11.2 9.6-4 16-12.8 16-23.2v-64h-88c-10.4 0-19.2-7.2-20-17.6-0.8-10.4 8-20 18.4-20h189.6c10.4 0 19.2-6.4 23.2-16 5.6-14.4 11.2-38.4 11.2-72v-2.4c0-32.8-5.6-56.8-11.2-72-2.4-8.8-12-15.2-22.4-15.2zM553.6 772c15.2 0 28 12.8 28 28s-12.8 28-28 28-28-12.8-28-28 12.8-28 28-28z" fill="#EA5514" p-id="5465"></path><path d="M864 960H160c-52.8 0-96-43.2-96-96V400c0-52.8 43.2-96 96-96h704c52.8 0 96 43.2 96 96v464c0 52.8-43.2 96-96 96zM160 368c-17.6 0-32 14.4-32 32v464c0 17.6 14.4 32 32 32h704c17.6 0 32-14.4 32-32V400c0-17.6-14.4-32-32-32H160z" fill="#EA5514" p-id="5466"></path><path d="M864 248H160c-17.6 0-32-14.4-32-32s14.4-32 32-32h704c17.6 0 32 14.4 32 32s-14.4 32-32 32z" fill="#07091C" p-id="5467"></path><path d="M800 128H224c-17.6 0-32-14.4-32-32s14.4-32 32-32h576c17.6 0 32 14.4 32 32s-14.4 32-32 32z" fill="#07091C" p-id="5468"></path></svg>